<svg xmlns="http://www.w3.org/2000/svg" xmlns:xlink="http://www.w3.org/1999/xlink" width="200" zoomAndPan="magnify" viewBox="0 0 150 135.750003" height="181" preserveAspectRatio="xMidYMid meet" version="1.0"><defs><g/><clipPath id="34e9f574df"><path d="M 0.136719 0 L 149.859375 0 L 149.859375 135.5 L 0.136719 135.5 Z M 0.136719 0 " clip-rule="nonzero"/></clipPath><clipPath id="3a99886cde"><path d="M 7.253906 41.21875 L 149.742188 41.21875 L 149.742188 134.75 L 7.253906 134.75 Z M 7.253906 41.21875 " clip-rule="nonzero"/></clipPath><clipPath id="fb9431ccbf"><path d="M 0.136719 0 L 140 0 L 140 113 L 0.136719 113 Z M 0.136719 0 " clip-rule="nonzero"/></clipPath></defs><g clip-path="url(#34e9f574df)"/><path fill="#51ace4" d="M 102.988281 71.949219 C 108.148438 71.949219 112.332031 67.765625 112.332031 62.605469 C 112.332031 57.445312 108.148438 53.261719 102.988281 53.261719 C 97.828125 53.261719 93.644531 57.445312 93.644531 62.605469 C 93.644531 67.765625 97.828125 71.949219 102.988281 71.949219 " fill-opacity="1" fill-rule="nonzero"/><path fill="#51ace4" d="M 56.234375 41.269531 L 74.941406 69.792969 L 80.746094 60.941406 Z M 56.234375 41.269531 " fill-opacity="1" fill-rule="nonzero"/><g clip-path="url(#3a99886cde)"><path fill="#51ace4" d="M 149.742188 41.269531 L 102.988281 78.785156 L 81.359375 61.429688 L 80.847656 61.019531 L 75.945312 71.324219 L 76.902344 72.785156 L 102.988281 112.5625 L 131.050781 69.773438 C 129.867188 99.742188 105.203125 123.675781 74.941406 123.675781 C 45.894531 123.675781 22 101.625 19.082031 73.351562 L 8.273438 56.875 C 7.726562 60.339844 7.4375 63.894531 7.4375 67.515625 C 7.4375 104.796875 37.660156 135.019531 74.941406 135.019531 C 112.222656 135.019531 142.445312 104.796875 142.445312 67.515625 C 142.445312 63.015625 142 58.617188 141.15625 54.363281 L 149.742188 41.269531 " fill-opacity="1" fill-rule="nonzero"/></g><path fill="#ffffff" d="M 80.746094 60.941406 L 74.941406 69.792969 L 75.945312 71.324219 L 80.847656 61.019531 L 80.746094 60.941406 " fill-opacity="1" fill-rule="nonzero"/><g clip-path="url(#fb9431ccbf)"><path fill="#3a81b3" d="M 74.941406 0.0117188 C 44.023438 0.0117188 17.964844 20.800781 9.96875 49.160156 L 0.136719 41.269531 L 46.890625 112.5625 L 93.644531 41.269531 L 46.890625 78.785156 L 19.765625 57.019531 C 24.683594 31.019531 47.511719 11.355469 74.941406 11.355469 C 101.585938 11.355469 123.898438 29.914062 129.65625 54.808594 L 139.289062 47.078125 C 130.628906 19.789062 105.097656 0.0117188 74.941406 0.0117188 " fill-opacity="1" fill-rule="nonzero"/></g><path fill="#3a81b3" d="M 76.953125 27.476562 L 75.324219 22.46875 L 73.699219 27.476562 L 68.433594 27.476562 L 72.695312 30.570312 L 71.066406 35.574219 L 75.324219 32.484375 L 79.585938 35.574219 L 77.957031 30.570312 L 82.214844 27.476562 L 76.953125 27.476562 " fill-opacity="1" fill-rule="nonzero"/><path fill="#3a81b3" d="M 94.277344 38.695312 L 93.644531 36.753906 L 93.015625 38.695312 L 90.976562 38.695312 L 92.625 39.894531 L 91.996094 41.835938 L 93.644531 40.636719 L 95.296875 41.835938 L 94.664062 39.894531 L 96.316406 38.695312 L 94.277344 38.695312 " fill-opacity="1" fill-rule="nonzero"/><path fill="#51ace4" d="M 56.636719 38.914062 L 56.234375 37.675781 L 55.835938 38.914062 L 54.535156 38.914062 L 55.585938 39.679688 L 55.183594 40.914062 L 56.234375 40.148438 L 57.285156 40.914062 L 56.886719 39.679688 L 57.9375 38.914062 L 56.636719 38.914062 " fill-opacity="1" fill-rule="nonzero"/><path fill="#3a81b3" d="M 46.890625 53.261719 C 41.730469 53.261719 37.546875 57.445312 37.546875 62.605469 C 37.546875 67.765625 41.730469 71.949219 46.890625 71.949219 C 52.050781 71.949219 56.234375 67.765625 56.234375 62.605469 C 56.234375 57.445312 52.050781 53.261719 46.890625 53.261719 " fill-opacity="1" fill-rule="nonzero"/><g fill="#ffffff" fill-opacity="1"><g transform="translate(73.390331, 109.121891)"><g><path d="M 0.625 -0.765625 C 0.625 -1.054688 0.703125 -1.28125 0.859375 -1.4375 C 1.023438 -1.59375 1.257812 -1.671875 1.5625 -1.671875 C 1.851562 -1.671875 2.078125 -1.59375 2.234375 -1.4375 C 2.398438 -1.28125 2.484375 -1.054688 2.484375 -0.765625 C 2.484375 -0.484375 2.398438 -0.257812 2.234375 -0.09375 C 2.078125 0.0625 1.851562 0.140625 1.5625 0.140625 C 1.257812 0.140625 1.023438 0.0625 0.859375 -0.09375 C 0.703125 -0.25 0.625 -0.472656 0.625 -0.765625 Z M 0.625 -0.765625 "/></g></g></g></svg>